<svg width="144.866" height="147.878" viewBox="0 0 38.329 39.126" xmlns="http://www.w3.org/2000/svg">
    <g stroke-width="9.376" clip-path="#clipPath4902">
        <path d="M19.496.001a1.458 1.583 38.794 0 0-1.209.492L.484 18.613A1.458 1.583 38.794 0 0 .4 20.78l6.744 6.864 15.77-24.698-2.496-2.54a1.458 1.583 38.794 0 0-.92-.405z"
              fill="#421c52"/>
        <path d="m31.503 11.804-15.77 24.699 2.178 2.217a1.458 1.583 38.794 0 0 2.13-.087l17.802-18.12a1.458 1.583 38.794 0 0 .086-2.168z"
              fill="#733e8d"/>
    </g>
    <path style="fill:#fff;stroke-width:.705644;stroke-linecap:round"
          d="m22.913 2.946 8.59 8.858-15.77 24.699-8.59-8.859z"/>
</svg>