<?xml version="1.0" encoding="UTF-8" standalone="no"?>
<svg
   width="1"
   height="1.0000011"
   viewBox="0 0 1 1.0000011"
   version="1.1"
   id="svg129"
   xmlns="http://www.w3.org/2000/svg">
  <defs
     id="defs11" />
  <path
     d="m 0.50843891,0.01262513 a 0.03673992,0.03981569 46.101895 0 0 -0.0307542,0.01225861 l -0.4528674,0.4514757 a 0.03673992,0.03981569 46.101895 0 0 -0.0021368,0.0539927 L 0.19423242,0.70137475 0.59538498,0.08600239 0.53189249,0.02271606 A 0.03673992,0.03981569 46.101895 0 0 0.5084898,0.01262513 Z"
     fill="#421c52"
     stroke="#ffffff"
     stroke-width="0.0251754"
     stroke-miterlimit="4"
     stroke-dasharray="none"
     stroke-opacity="1"
     id="path2" />
  <path
     d="m 0.8138694,0.30670728 -0.40115256,0.61539724 0.0554033,0.0552385 a 0.03673992,0.03981569 46.101895 0 0 0.0541823,-0.002168 L 0.97514442,0.52369965 a 0.03673992,0.03981569 46.101895 0 0 0.002188,-0.0540176 z"
     fill="#733e8d"
     stroke="#ffffff"
     stroke-width="0.0251754"
     stroke-miterlimit="4"
     stroke-dasharray="none"
     stroke-opacity="1"
     id="path4" />
  <path
     d="M 0.59535953,0.08600239 0.8138694,0.30670728 0.41271684,0.92210452 0.19420698,0.70137475 Z"
     fill="#ffffff"
     stroke="#ffffff"
     stroke-width="0.0251754"
     stroke-linecap="round"
     stroke-miterlimit="4"
     stroke-dasharray="none"
     stroke-opacity="1"
     id="path6" />
</svg>
