<?xml version="1.0"?>
<svg xmlns:rdf="http://www.w3.org/1999/02/22-rdf-syntax-ns#" xmlns="http://www.w3.org/2000/svg"
     xmlns:cc="http://web.resource.org/cc/" xmlns:dc="http://purl.org/dc/elements/1.1/"
     xmlns:sodipodi="http://inkscape.sourceforge.net/DTD/sodipodi-0.dtd" id="svg2" height="258.89pt"
     sodipodi:version="0.32" width="213.28pt" version="1.0" sodipodi:docname="fer_a_souder.svg"
     sodipodi:docbase="/home/f5soh/Swf/Svg_perso">
    <sodipodi:namedview id="base" bordercolor="#666666" borderopacity="1.0" pagecolor="#ffffff"/>
    <g id="layer1">
        <rect id="rect7495" transform="matrix(.515 -.85719 .83082 .55654 0 0)" rx="19.03" ry="19.501" height="22.244"
              width="93.889" y="229.51" x="-91.94" fill="#d5ded5"/>
        <path id="rect12746" sodipodi:nodetypes="czcczzsz" fill="#202c20"
              d="m209.27 111.68c7.26-22.334-3.76-22.311 4.15-42.267 7.92-19.956 20.55-30.141 27.51-37.557-25.07-10.856 10.51-12.223 5.29 2.915-15.16 15.567-19.59 17.601-27.51 37.557-7.91 19.956 4.64 22.867-4.14 42.262-8.95 19.76-2.62 1.9-4.08 1.1-1.47-0.81-8.43 18.2-1.22-4.01z"/>
        <path id="rect10997" sodipodi:nodetypes="ccsccsc" fill="#231b14"
              d="m191.67 131.97l15.58-19.88c1.22-1.96 3.85-2.54 5.91-1.29 2.06 1.24 2.74 3.83 1.52 5.79l-8.98 20.35c-1.22 1.97-3.08-3.11-6.83-4.62-5.6-2.24-8.42 1.61-7.2-0.35z"/>
        <path id="path3118" sodipodi:rx="62.296482" sodipodi:ry="27.331657" sodipodi:type="arc"
              d="m225.06 352.33a62.296 27.332 0 1 1 -124.6 0 62.296 27.332 0 1 1 124.6 0z"
              transform="matrix(.64445 -.047239 .056427 .75398 -52.659 -33.098)" sodipodi:cy="352.327"
              sodipodi:cx="162.75879" fill="#007100"/>
        <path id="path1365" sodipodi:rx="62.296482" sodipodi:ry="27.331657" sodipodi:type="arc"
              d="m225.06 352.33a62.296 27.332 0 1 1 -124.6 0 62.296 27.332 0 1 1 124.6 0z"
              transform="matrix(.64445 -.047239 .056427 .75398 -52.659 -35.513)" sodipodi:cy="352.327"
              sodipodi:cx="162.75879" fill="#009f00"/>
        <path id="path3993" sodipodi:rx="62.296482" sodipodi:ry="27.331657" sodipodi:type="arc"
              d="m225.06 352.33a62.296 27.332 0 1 1 -124.6 0 62.296 27.332 0 1 1 124.6 0z"
              transform="matrix(.64445 -.047239 .056427 .75398 -48.999 12.786)" sodipodi:cy="352.327"
              sodipodi:cx="162.75879" fill="#007100"/>
        <path id="path2240" sodipodi:rx="62.296482" sodipodi:ry="27.331657" sodipodi:type="arc"
              d="m225.06 352.33a62.296 27.332 0 1 1 -124.6 0 62.296 27.332 0 1 1 124.6 0z"
              transform="matrix(.64445 -.047239 .056427 .75398 -49.355 10.074)" sodipodi:cy="352.327"
              sodipodi:cx="162.75879" fill="#009f00"/>
        <path id="path2242" sodipodi:nodetypes="csscccsssc" fill="#a7b6d1"
              d="m109.1 264.22c-0.22 12.08-13.226 16.55-31.57 18.85s-35.478-3.74-36.098-18.26c-0.579-13.29-1.152-18.17-1.681-25.62 13.349 5.77 38.296 13.6 67.779-5.49 0.5 15.76 1.07 24.81 1.51 28.01 4.51 2.24 42.86 15.11 49.56 15.56 1.35 0.09 0.78 2.64-0.34 2.51-13.44-1.57-45.8-14.87-45.74-14.08 0.07 0.79-3.47-1.87-3.42-1.48z"/>
        <rect id="rect9247" transform="matrix(.53713 -.8435 .84849 .52921 0 0)" rx="17.984" ry="22.053" height="25.761"
              width="42.345" y="229.68" x="-119.69" fill="#f68931"/>
        <path id="path9245" sodipodi:rx="23.638191" sodipodi:ry="25.361809" sodipodi:type="arc"
              d="m367.38 257.77a23.638 25.362 0 1 1 -47.28 0 23.638 25.362 0 1 1 47.28 0z"
              transform="matrix(.26602 -.39136 .45212 .301 -62.946 282.08)" sodipodi:cy="257.77423"
              sodipodi:cx="343.73871" fill="#dd7623"/>
        <path id="path10122" sodipodi:rx="23.638191" sodipodi:ry="25.361809" sodipodi:type="arc"
              d="m367.38 257.77a23.638 25.362 0 1 1 -47.28 0 23.638 25.362 0 1 1 47.28 0z"
              transform="matrix(.17411 -.49517 .58829 .22701 -68.565 339.61)" sodipodi:cy="257.77423"
              sodipodi:cx="343.73871" fill="#f9872b"/>
        <rect id="rect5744" transform="matrix(.51334 -.85818 .86282 .50552 0 0)" rx="7.1404" ry="7.1404" height="8.689"
              width="50.682" y="235.19" x="-172.67" fill="#9cab9c"/>
        <path id="path4868" sodipodi:nodetypes="cssssc" fill="#627162"
              d="m140.21 241.29c0.9 5.37-19.25 36.09-21.3 37.88-15.1 13.14-17.58 27.48-21.952 25.74-3.962-1.57 9.472-13.73 11.332-31.05 0.39-3.6 17.93-29.69 22.35-36.43 1.48-2.27 8.87-0.2 9.57 3.86z"/>
        <path id="path13622" sodipodi:rx="62.296482" sodipodi:ry="27.331657" sodipodi:type="arc"
              d="m225.06 352.33a62.296 27.332 0 1 1 -124.6 0 62.296 27.332 0 1 1 124.6 0z"
              transform="matrix(.25928 -.020034 .022702 .31976 22.562 113.47)" sodipodi:cy="352.327"
              sodipodi:cx="162.75879" fill="#327632"/>
    </g>
    <metadata>
        <rdf:RDF>
            <cc:Work>
                <dc:format>image/svg+xml</dc:format>
                <dc:type rdf:resource="http://purl.org/dc/dcmitype/StillImage"/>
                <cc:license rdf:resource="http://creativecommons.org/licenses/publicdomain/"/>
                <dc:publisher>
                    <cc:Agent rdf:about="http://openclipart.org/">
                        <dc:title>Openclipart</dc:title>
                    </cc:Agent>
                </dc:publisher>
                <dc:title>fer a souder</dc:title>
                <dc:date>2006-09-18T07:03:41</dc:date>
                <dc:description>An iron solder.</dc:description>
                <dc:source>http://openclipart.org/detail/163/fer_a_souder-by-technoargia</dc:source>
                <dc:creator>
                    <cc:Agent>
                        <dc:title>technoargia</dc:title>
                    </cc:Agent>
                </dc:creator>
                <dc:subject>
                    <rdf:Bag>
                        <rdf:li>clip art</rdf:li>
                        <rdf:li>clipart</rdf:li>
                        <rdf:li>electronics</rdf:li>
                        <rdf:li>iron solder</rdf:li>
                        <rdf:li>tool</rdf:li>
                    </rdf:Bag>
                </dc:subject>
            </cc:Work>
            <cc:License rdf:about="http://creativecommons.org/licenses/publicdomain/">
                <cc:permits rdf:resource="http://creativecommons.org/ns#Reproduction"/>
                <cc:permits rdf:resource="http://creativecommons.org/ns#Distribution"/>
                <cc:permits rdf:resource="http://creativecommons.org/ns#DerivativeWorks"/>
            </cc:License>
        </rdf:RDF>
    </metadata>
</svg>
