<?xml version="1.0" encoding="UTF-8" standalone="no"?>
<svg
   viewBox="0 0 97.1 97"
   version="1.1"
   id="svg12"
   sodipodi:docname="spring.svg"
   inkscape:version="1.2.2 (b0a8486541, 2022-12-01)"
   xmlns:inkscape="http://www.inkscape.org/namespaces/inkscape"
   xmlns:sodipodi="http://sodipodi.sourceforge.net/DTD/sodipodi-0.dtd"
   xmlns="http://www.w3.org/2000/svg"
   xmlns:svg="http://www.w3.org/2000/svg">
  <sodipodi:namedview
     id="namedview14"
     pagecolor="#505050"
     bordercolor="#ffffff"
     borderopacity="1"
     inkscape:showpageshadow="0"
     inkscape:pageopacity="0"
     inkscape:pagecheckerboard="1"
     inkscape:deskcolor="#505050"
     showgrid="false"
     inkscape:zoom="7.6597938"
     inkscape:cx="48.565276"
     inkscape:cy="48.434724"
     inkscape:window-width="1920"
     inkscape:window-height="1028"
     inkscape:window-x="1920"
     inkscape:window-y="0"
     inkscape:window-maximized="1"
     inkscape:current-layer="svg12" />
  <defs
     id="defs4">
    <style
       id="style2">.cls-1{fill:#6db33f;}</style>
    <inkscape:path-effect
       effect="fill_between_many"
       method="originald"
       linkedpaths="#Layer_2,0,1|"
       id="path-effect852" />
    <inkscape:path-effect
       effect="fill_between_many"
       method="originald"
       linkedpaths="#path8,0,1|"
       id="path-effect952" />
  </defs>
  <title
     id="title6">spring-icon</title>
  <path
     inkscape:original-d="M 0,0"
     inkscape:path-effect="#path-effect852"
     d="M 0,0"
     id="path854"
     class="UnoptimicedTransforms"
     style="fill:#ffffff" />
  <g
     id="Layer_2"
     data-name="Layer 2"
     class="UnoptimicedTransforms">
    <g
       id="logos">
      <path
         inkscape:original-d="M 0,0"
         inkscape:path-effect="#path-effect952"
         d="M 88.4,5.6 A 42.32,42.32 0 0 1 83.2,14.7 48.46,48.46 0 1 0 15.5,84 l 1.8,1.6 A 48.41,48.41 0 0 0 96.8,52 C 98.2,39.8 94.5,24.2 88.4,5.6 Z"
         id="path954"
         class="UnoptimicedTransforms"
         style="fill:#ffffff" />
      <path
         class="cls-1 UnoptimicedTransforms"
         d="M88.4,5.6a42.32,42.32,0,0,1-5.2,9.1A48.46,48.46,0,1,0,15.5,84l1.8,1.6A48.41,48.41,0,0,0,96.8,52C98.2,39.8,94.5,24.2,88.4,5.6ZM22.5,84.4a4.12,4.12,0,1,1-.6-5.8A4.21,4.21,0,0,1,22.5,84.4ZM88.1,69.9C76.2,85.8,50.6,80.4,34.3,81.2c0,0-2.9.2-5.8.6,0,0,1.1-.5,2.5-1,11.5-4,16.9-4.8,23.9-8.4C68,65.7,81.1,51,83.7,35.8c-5,14.6-20.2,27.2-34,32.3C40.2,71.6,23.1,75,23.1,75l-.7-.4c-11.6-5.7-12-30.9,9.2-39,9.3-3.6,18.1-1.6,28.2-4,10.7-2.5,23.1-10.5,28.1-21C93.5,27.5,100.3,53.7,88.1,69.9Z"
         id="path8" />
    </g>
  </g>
</svg>
